<svg xmlns="http://www.w3.org/2000/svg" viewBox="0 0 110 44"><path fill="#F38B00" d="M31.942 20.201c4.212-9.88 14.01-16.807 25.429-16.807 11.417 0 21.219 6.927 25.427 16.808l.002-.001a1.74 1.74 0 0 0 3.377-.591c0-.234-.038-.453-.121-.658v-.001C81.304 7.81 70.249 0 57.372 0 44.496 0 33.444 7.805 28.691 18.945a1.694 1.694 0 0 0-.124.666c0 .96.779 1.74 1.74 1.74.753-.001 1.375-.473 1.635-1.15z"/><path fill="#FFF" d="M16.276 38.193c-.095.295-.317.482-.73.482h-2.319c-.38 0-.571-.107-.667-.482l-2.193-8.191c-.223-.829-.317-1.793-.447-2.758-.095.965-.222 1.955-.443 2.758l-2.192 8.191c-.064.295-.317.482-.731.482H4.202c-.381 0-.571-.107-.666-.482L.327 26.415c-.095-.403.158-.644.508-.644h1.493c.412 0 .635.135.73.536l2.036 8.407c.219.963.285 1.955.38 2.863.158-.884.285-1.925.539-2.836L8.27 26.28c.095-.349.382-.51.764-.51h1.841c.38 0 .7.19.794.536l2.288 8.434c.255.911.382 1.928.508 2.836.127-.884.255-1.925.445-2.836l1.875-8.461c.064-.349.38-.51.763-.51h1.398c.35 0 .604.216.508.617l-3.178 11.807zM28.706 38.796c-3.684 0-6.1-2.533-6.1-6.656 0-4.097 2.416-6.588 6.1-6.588 3.688 0 6.037 2.49 6.037 6.588 0 4.123-2.349 6.656-6.037 6.656zm-.062-11.448c-2.192 0-3.399 1.578-3.399 4.792 0 3.295 1.207 4.888 3.399 4.888s3.399-1.593 3.399-4.888c-.001-3.214-1.207-4.792-3.399-4.792zM46.602 27.589c-.095.375-.38.615-.922.479-.444-.104-1.174-.293-1.778-.293-.922 0-2.163 1.048-2.163 3.377v6.989c0 .293-.316.534-.666.534h-1.209c-.347 0-.666-.241-.666-.534V26.307c0-.32.319-.536.666-.536h.732c.318 0 .573.135.667.403l.444 1.445c.891-1.257 2.097-2.067 3.558-2.067 1.016 0 1.812.404 1.652.94l-.315 1.097zM75.63 38.563h-.667c-.477 0-.732-.162-.826-.536l-.256-1.073c-.919 1.31-2.063 1.819-3.715 1.819-3.273 0-4.988-2.235-4.988-6.57 0-2.651.444-3.963 1.525-5.194.826-.938 2.193-1.448 3.558-1.448 1.557 0 2.731.643 3.558 1.901v-7.281c0-.323.318-.537.667-.537h1.143c.35 0 .667.214.667.537v17.844c.002.297-.316.538-.666.538zM70.8 27.331c-.954 0-1.684.347-2.126 1.042-.446.698-.796 1.848-.796 3.803 0 3.427.891 4.831 2.892 4.831 2.065 0 3.112-1.562 3.112-4.776-.001-3.189-1.145-4.9-3.082-4.9zM61.186 38.682h-1.937c-.319 0-.573-.188-.762-.456l-4.892-6.212v6.132c0 .294-.319.536-.669.536h-1.143c-.349 0-.666-.242-.666-.536V20.261c0-.321.317-.534.666-.534h1.143c.35 0 .669.214.669.534v11.511l5.042-5.592c.157-.215.411-.403.826-.403h1.714c.445 0 .603.375.35.642L56.168 31.8l5.369 6.239c.222.268.094.643-.351.643zM95.004 26.307c-.132-.292.202-.529.572-.529h1.496c.399 0 .701.185.838.529l2.956 7.8c.136.371.268.925.335 1.347.102-.397.302-1.164.535-1.823l2.377-7.35c.1-.344.403-.503.808-.503h1.442c.367 0 .67.238.568.529l-4.928 14.16c-.503 1.45-1.477 2.59-3.153 3.226l-.704.261c-.299.107-.702.026-.872-.235l-.467-.741c-.135-.211.032-.634.336-.743l.501-.185c1.255-.455 2.176-1.825 2.574-3.572l-5.214-12.171zM86.498 25.559c-3.689 0-5.848 2.498-5.848 6.597 0 4.132 2.213 6.604 5.662 6.604h.004c1.48 0 2.436-.512 3.359-1.828l.25 1.106c.094.377.351.536.829.536h.667c.351 0 .67-.24.67-.536l.006-5.916v-.002c0-4.099-1.904-6.561-5.599-6.561zm-.062 11.426c-2.196 0-3.144-1.53-3.144-4.829 0-3.219.948-4.799 3.144-4.799 2.195 0 3.23 1.58 3.23 4.799.001 3.299-1.034 4.829-3.23 4.829zM108.634 35.256c.211.089.401.22.567.386.158.161.282.349.363.553.085.211.128.43.128.664 0 .238-.043.457-.133.668-.085.214-.21.394-.377.558a1.857 1.857 0 0 1-.567.376 1.7 1.7 0 0 1-.658.129c-.23 0-.453-.048-.663-.133a1.828 1.828 0 0 1-.567-.391 1.723 1.723 0 0 1-.244-2.109c.158-.262.363-.467.62-.615.259-.148.544-.22.855-.22.237 0 .463.042.676.134zm-1.221.257a1.306 1.306 0 0 0-.457.305c-.144.138-.248.3-.326.481a1.417 1.417 0 0 0-.114.555c0 .191.033.376.104.548.072.172.177.329.311.462.138.14.296.249.473.325.176.076.361.114.553.114a1.499 1.499 0 0 0 1.025-.424 1.406 1.406 0 0 0 .425-.997 1.448 1.448 0 0 0-.883-1.365 1.485 1.485 0 0 0-1.111-.004zm.583.347c.27 0 .477.049.614.14.138.095.204.228.204.416a.499.499 0 0 1-.109.323.577.577 0 0 1-.309.186l.43.859h-.52l-.367-.787h-.229v.787h-.469V35.86h.755zm-.286.854h.229c.138 0 .238-.024.3-.067.062-.043.096-.109.096-.204 0-.096-.033-.168-.1-.216a.588.588 0 0 0-.32-.071h-.205v.558z"/></svg>